<?xml version="1.0" encoding="UTF-8" standalone="no"?>
<!-- Created with Inkscape (http://www.inkscape.org/) -->

<svg
   xmlns:osb="http://www.openswatchbook.org/uri/2009/osb"
   xmlns:dc="http://purl.org/dc/elements/1.1/"
   xmlns:cc="http://creativecommons.org/ns#"
   xmlns:rdf="http://www.w3.org/1999/02/22-rdf-syntax-ns#"
   xmlns:svg="http://www.w3.org/2000/svg"
   xmlns="http://www.w3.org/2000/svg"
   xmlns:xlink="http://www.w3.org/1999/xlink"
   xmlns:sodipodi="http://sodipodi.sourceforge.net/DTD/sodipodi-0.dtd"
   xmlns:inkscape="http://www.inkscape.org/namespaces/inkscape"
   width="50"
   height="50"
   viewBox="0 0 13.229166 13.229167"
   version="1.1"
   id="svg8"
   sodipodi:docname="kart-icon.svg"
   inkscape:version="0.92.4 (unknown)">
  <defs
     id="defs2">
    <linearGradient
       inkscape:collect="always"
       id="linearGradient2371">
      <stop
         style="stop-color:#e2401c;stop-opacity:1;"
         offset="0"
         id="stop2367" />
      <stop
         style="stop-color:#c13e83;stop-opacity:0.663"
         offset="1"
         id="stop2369" />
    </linearGradient>
    <linearGradient
       id="linearGradient2345"
       osb:paint="solid">
      <stop
         style="stop-color:#e2401c;stop-opacity:1;"
         offset="0"
         id="stop2343" />
    </linearGradient>
    <linearGradient
       inkscape:collect="always"
       xlink:href="#linearGradient2371"
       id="linearGradient2373"
       x1="-0.43431297"
       y1="289.98416"
       x2="17.339111"
       y2="290.08438"
       gradientUnits="userSpaceOnUse"
       gradientTransform="matrix(1.0256143,0,0,1.0025053,-0.1027933,-0.71060807)" />
  </defs>
  <sodipodi:namedview
     id="base"
     pagecolor="#ffffff"
     bordercolor="#666666"
     borderopacity="1.0"
     inkscape:pageopacity="0.0"
     inkscape:pageshadow="2"
     inkscape:zoom="11.2"
     inkscape:cx="26.868156"
     inkscape:cy="25.691136"
     inkscape:document-units="mm"
     inkscape:current-layer="layer3"
     showgrid="false"
     units="px"
     inkscape:window-width="1440"
     inkscape:window-height="846"
     inkscape:window-x="0"
     inkscape:window-y="0"
     inkscape:window-maximized="1" />
  <metadata
     id="metadata5">
    <rdf:RDF>
      <cc:Work
         rdf:about="">
        <dc:format>image/svg+xml</dc:format>
        <dc:type
           rdf:resource="http://purl.org/dc/dcmitype/StillImage" />
        <dc:title></dc:title>
      </cc:Work>
    </rdf:RDF>
  </metadata>
  <g
     inkscape:label="Capa 1"
     inkscape:groupmode="layer"
     id="layer1"
     transform="translate(0,-283.77082)"
     sodipodi:insensitive="true">
    <ellipse
       style="opacity:1;fill:url(#linearGradient2373);fill-opacity:1;stroke:none;stroke-width:0.2584317;stroke-linecap:round;stroke-linejoin:round;stroke-miterlimit:4;stroke-dasharray:none;stroke-dashoffset:0;stroke-opacity:1;paint-order:normal"
       id="path14"
       cx="6.6671896"
       cy="290.38623"
       rx="6.6671901"
       ry="6.6137528" />
  </g>
  <g
     inkscape:groupmode="layer"
     id="layer3"
     inkscape:label="Capa 2">
    <g
       style="fill:none"
       id="g2529"
       transform="matrix(0.26458333,0,0,0.26458333,2.2332209,3.1569808)">
      <path
         id="path2503"
         stroke-miterlimit="10"
         d="M 1.39999,1.70001 H 6.60001"
         inkscape:connector-curvature="0"
         style="stroke:#4f4f4f;stroke-width:2;stroke-linecap:round;stroke-miterlimit:10" />
      <path
         id="path2505"
         stroke-miterlimit="10"
         d="M 6.60001,1.70001 11,18.9"
         inkscape:connector-curvature="0"
         style="stroke:#4f4f4f;stroke-width:2;stroke-linecap:round;stroke-miterlimit:10" />
      <path
         id="path2507"
         stroke-miterlimit="10"
         d="M 11.8,18.9 H 28.3"
         inkscape:connector-curvature="0"
         style="stroke:#4f4f4f;stroke-width:2;stroke-linecap:round;stroke-miterlimit:10" />
      <path
         id="path2509"
         stroke-miterlimit="10"
         d="m 13.8,25.7 c 1.6569,0 3,-1.3431 3,-3 0,-1.6568 -1.3431,-3 -3,-3 -1.6569,0 -3,1.3432 -3,3 0,1.6569 1.3431,3 3,3 z"
         inkscape:connector-curvature="0"
         style="stroke:#4f4f4f;stroke-width:2;stroke-linecap:round;stroke-miterlimit:10" />
      <path
         id="path2511"
         stroke-miterlimit="10"
         d="m 25.3,25.7 c 1.6568,0 3,-1.3431 3,-3 0,-1.6568 -1.3432,-3 -3,-3 -1.6569,0 -3,1.3432 -3,3 0,1.6569 1.3431,3 3,3 z"
         inkscape:connector-curvature="0"
         style="stroke:#4f4f4f;stroke-width:2;stroke-linecap:round;stroke-miterlimit:10" />
      <path
         id="path2513"
         stroke-miterlimit="10"
         d="M 25.7,14.6 H 11.3 c -0.6,0 -1.2,-0.4 -1.3,-1 L 8.1,6.90001 c -0.2,-0.9 0.39999,-1.7 1.29999,-1.7 H 27.5 c 0.9,0 1.6,0.9 1.3,1.7 L 26.9,13.6 c 0,0.6 -0.5,1 -1.2,1 z"
         inkscape:connector-curvature="0"
         style="stroke:#4f4f4f;stroke-width:2;stroke-linecap:round;stroke-miterlimit:10" />
    </g>
    <path
       style="opacity:0.66300001;fill:#fff000;fill-opacity:0;stroke:#c13e83;stroke-width:0.08928572;stroke-linecap:round;stroke-linejoin:round;stroke-miterlimit:4;stroke-dasharray:none;stroke-dashoffset:0;stroke-opacity:0;paint-order:normal"
       d="m 21.417382,38.508621 c -1.181518,-0.254481 -2.182261,-1.051756 -2.742158,-2.184631 -0.281448,-0.569471 -0.329248,-0.760321 -0.361999,-1.445359 -0.04723,-0.987785 0.171542,-1.780903 0.698884,-2.533709 0.200773,-0.286611 0.352972,-0.528096 0.338222,-0.536632 -0.01475,-0.0085 -0.145231,-0.05431 -0.289957,-0.101714 -0.144727,-0.04741 -0.331654,-0.206508 -0.415394,-0.35356 -0.08374,-0.147051 -1.043208,-3.762902 -2.132152,-8.035223 -1.088944,-4.272322 -2.039913,-7.978795 -2.113264,-8.236607 l -0.133365,-0.46875 h -2.319527 c -2.510617,0 -2.6885372,-0.02932 -2.9313759,-0.483069 -0.1553642,-0.2903 -0.157974,-0.702972 -0.00624,-0.986492 0.24874,-0.464775 0.4608256,-0.494754 3.4975919,-0.494391 2.616839,3.12e-4 2.817576,0.01166 3.084322,0.174301 0.311281,0.1898 0.282262,0.112445 0.788625,2.102151 0.174963,0.6875 0.333174,1.295167 0.351581,1.350373 0.02417,0.07249 0.165663,0.06591 0.50933,-0.0237 0.394478,-0.102851 2.079233,-0.120017 9.850863,-0.100373 9.293724,0.02349 9.378492,0.02531 9.777788,0.210138 0.722142,0.334264 1.268542,1.042397 1.389895,1.801304 0.0651,0.407087 0.05623,0.442981 -1.251805,5.065826 l -0.934744,3.303571 -0.392127,0.371508 c -0.215668,0.204328 -0.548924,0.415042 -0.740567,0.468251 -0.237371,0.06591 -2.732018,0.0969 -7.826118,0.09724 -5.052769,3.57e-4 -7.477679,0.03021 -7.477679,0.09213 0,0.05039 0.12551,0.592806 0.278911,1.205357 l 0.27891,1.113728 h 8.386238 c 7.305345,0 8.419848,0.01738 8.647014,0.134852 0.329254,0.170265 0.444641,0.385493 0.444641,0.82938 0,0.455863 -0.264241,0.789583 -0.72301,0.913117 l -0.356292,0.09594 0.273222,0.344971 c 0.525654,0.663693 0.750339,1.300237 0.789011,2.235311 0.05357,1.295276 -0.287343,2.168809 -1.196045,3.064674 -1.46374,1.443065 -3.979428,1.434518 -5.455579,-0.01853 -0.895205,-0.881195 -1.227539,-1.742361 -1.170253,-3.032439 0.04267,-0.96087 0.240722,-1.540088 0.758594,-2.218538 l 0.293459,-0.384451 h -2.899826 -2.899825 l 0.35545,0.46875 c 0.598557,0.789348 0.868987,1.891812 0.712303,2.903845 -0.25425,1.642212 -1.478153,2.938272 -3.099031,3.281737 -0.713851,0.151265 -0.972197,0.152798 -1.636523,0.0097 z m 1.611488,-2.028688 c 0.498131,-0.225831 0.770856,-0.475169 0.992501,-0.90739 0.691533,-1.348533 -0.251885,-2.924393 -1.75074,-2.924393 -1.331348,0 -2.2415,1.077601 -2.000356,2.368379 0.23469,1.256237 1.608276,1.984909 2.758595,1.463404 z m 11.747281,-0.125345 c 0.889858,-0.521492 1.237999,-1.677003 0.779515,-2.587281 -0.361129,-0.716986 -1.016799,-1.127228 -1.807639,-1.13101 -0.929493,-0.0044 -1.755985,0.641111 -1.971625,1.539997 -0.411442,1.715084 1.465029,3.077701 2.999749,2.178294 z M 34.565259,24.701721 c 1.802197,-6.297496 1.815663,-6.350874 1.635489,-6.482621 -0.143035,-0.10459 -1.636772,-0.124522 -9.3318,-0.124522 -9.496487,0 -9.372429,-0.0047 -9.377918,0.352679 -0.005,0.322712 1.912868,6.932304 2.041618,7.036229 0.109459,0.08835 1.691768,0.107282 7.464388,0.08929 l 7.325484,-0.02284 z"
       id="path2531"
       inkscape:connector-curvature="0"
       transform="scale(0.26458333)" />
    <path
       style="opacity:0.66300001;fill:#fff000;fill-opacity:0;stroke:#c13e83;stroke-width:0.08928572;stroke-linecap:round;stroke-linejoin:round;stroke-miterlimit:4;stroke-dasharray:none;stroke-dashoffset:0;stroke-opacity:0;paint-order:normal"
       d="m 21.417382,38.508621 c -1.181518,-0.254481 -2.182261,-1.051756 -2.742158,-2.184631 -0.281448,-0.569471 -0.329248,-0.760321 -0.361999,-1.445359 -0.04723,-0.987785 0.171542,-1.780903 0.698884,-2.533709 0.200773,-0.286611 0.352972,-0.528096 0.338222,-0.536632 -0.01475,-0.0085 -0.145231,-0.05431 -0.289957,-0.101714 -0.144727,-0.04741 -0.331654,-0.206508 -0.415394,-0.35356 -0.08374,-0.147051 -1.043208,-3.762902 -2.132152,-8.035223 -1.088944,-4.272322 -2.039913,-7.978795 -2.113264,-8.236607 l -0.133365,-0.46875 h -2.319527 c -2.510617,0 -2.6885372,-0.02932 -2.9313759,-0.483069 -0.1553642,-0.2903 -0.157974,-0.702972 -0.00624,-0.986492 0.24874,-0.464775 0.4608256,-0.494754 3.4975919,-0.494391 2.616839,3.12e-4 2.817576,0.01166 3.084322,0.174301 0.311281,0.1898 0.282262,0.112445 0.788625,2.102151 0.174963,0.6875 0.333174,1.295167 0.351581,1.350373 0.02417,0.07249 0.165663,0.06591 0.50933,-0.0237 0.394478,-0.102851 2.079233,-0.120017 9.850863,-0.100373 9.293724,0.02349 9.378492,0.02531 9.777788,0.210138 0.722142,0.334264 1.268542,1.042397 1.389895,1.801304 0.0651,0.407087 0.05623,0.442981 -1.251805,5.065826 l -0.934744,3.303571 -0.392127,0.371508 c -0.215668,0.204328 -0.548924,0.415042 -0.740567,0.468251 -0.237371,0.06591 -2.732018,0.0969 -7.826118,0.09724 -5.052769,3.57e-4 -7.477679,0.03021 -7.477679,0.09213 0,0.05039 0.12551,0.592806 0.278911,1.205357 l 0.27891,1.113728 h 8.386238 c 7.305345,0 8.419848,0.01738 8.647014,0.134852 0.329254,0.170265 0.444641,0.385493 0.444641,0.82938 0,0.455863 -0.264241,0.789583 -0.72301,0.913117 l -0.356292,0.09594 0.273222,0.344971 c 0.525654,0.663693 0.750339,1.300237 0.789011,2.235311 0.05357,1.295276 -0.287343,2.168809 -1.196045,3.064674 -1.46374,1.443065 -3.979428,1.434518 -5.455579,-0.01853 -0.895205,-0.881195 -1.227539,-1.742361 -1.170253,-3.032439 0.04267,-0.96087 0.240722,-1.540088 0.758594,-2.218538 l 0.293459,-0.384451 h -2.899826 -2.899825 l 0.35545,0.46875 c 0.598557,0.789348 0.868987,1.891812 0.712303,2.903845 -0.25425,1.642212 -1.478153,2.938272 -3.099031,3.281737 -0.713851,0.151265 -0.972197,0.152798 -1.636523,0.0097 z m 1.611488,-2.028688 c 0.498131,-0.225831 0.770856,-0.475169 0.992501,-0.90739 0.691533,-1.348533 -0.251885,-2.924393 -1.75074,-2.924393 -1.331348,0 -2.2415,1.077601 -2.000356,2.368379 0.23469,1.256237 1.608276,1.984909 2.758595,1.463404 z m 11.747281,-0.125345 c 0.889858,-0.521492 1.237999,-1.677003 0.779515,-2.587281 -0.361129,-0.716986 -1.016799,-1.127228 -1.807639,-1.13101 -0.929493,-0.0044 -1.755985,0.641111 -1.971625,1.539997 -0.411442,1.715084 1.465029,3.077701 2.999749,2.178294 z M 34.565259,24.701721 c 1.802197,-6.297496 1.815663,-6.350874 1.635489,-6.482621 -0.143035,-0.10459 -1.636772,-0.124522 -9.3318,-0.124522 -9.496487,0 -9.372429,-0.0047 -9.377918,0.352679 -0.005,0.322712 1.912868,6.932304 2.041618,7.036229 0.109459,0.08835 1.691768,0.107282 7.464388,0.08929 l 7.325484,-0.02284 z"
       id="path2533"
       inkscape:connector-curvature="0"
       transform="scale(0.26458333)" />
    <path
       style="opacity:0.66300001;fill:#fff000;fill-opacity:1;stroke:#c13e83;stroke-width:0.08928572;stroke-linecap:round;stroke-linejoin:round;stroke-miterlimit:4;stroke-dasharray:none;stroke-dashoffset:0;stroke-opacity:0;paint-order:normal"
       d="m 21.417382,38.508621 c -1.181518,-0.254481 -2.182261,-1.051756 -2.742158,-2.184631 -0.281448,-0.569471 -0.329248,-0.760321 -0.361999,-1.445359 -0.04723,-0.987785 0.171542,-1.780903 0.698884,-2.533709 0.200773,-0.286611 0.352972,-0.528096 0.338222,-0.536632 -0.01475,-0.0085 -0.145231,-0.05431 -0.289957,-0.101714 -0.144727,-0.04741 -0.331654,-0.206508 -0.415394,-0.35356 -0.08374,-0.147051 -1.043208,-3.762902 -2.132152,-8.035223 -1.088944,-4.272322 -2.039913,-7.978795 -2.113264,-8.236607 l -0.133365,-0.46875 h -2.319527 c -2.510617,0 -2.6885372,-0.02932 -2.9313759,-0.483069 -0.1553642,-0.2903 -0.157974,-0.702972 -0.00624,-0.986492 0.24874,-0.464775 0.4608256,-0.494754 3.4975919,-0.494391 2.616839,3.12e-4 2.817576,0.01166 3.084322,0.174301 0.311281,0.1898 0.282262,0.112445 0.788625,2.102151 0.174963,0.6875 0.333174,1.295167 0.351581,1.350373 0.02417,0.07249 0.165663,0.06591 0.50933,-0.0237 0.394478,-0.102851 2.079233,-0.120017 9.850863,-0.100373 9.293724,0.02349 9.378492,0.02531 9.777788,0.210138 0.722142,0.334264 1.268542,1.042397 1.389895,1.801304 0.0651,0.407087 0.05623,0.442981 -1.251805,5.065826 l -0.934744,3.303571 -0.392127,0.371508 c -0.215668,0.204328 -0.548924,0.415042 -0.740567,0.468251 -0.237371,0.06591 -2.732018,0.0969 -7.826118,0.09724 -5.052769,3.57e-4 -7.477679,0.03021 -7.477679,0.09213 0,0.05039 0.12551,0.592806 0.278911,1.205357 l 0.27891,1.113728 h 8.386238 c 7.305345,0 8.419848,0.01738 8.647014,0.134852 0.329254,0.170265 0.444641,0.385493 0.444641,0.82938 0,0.455863 -0.264241,0.789583 -0.72301,0.913117 l -0.356292,0.09594 0.273222,0.344971 c 0.525654,0.663693 0.750339,1.300237 0.789011,2.235311 0.05357,1.295276 -0.287343,2.168809 -1.196045,3.064674 -1.46374,1.443065 -3.979428,1.434518 -5.455579,-0.01853 -0.895205,-0.881195 -1.227539,-1.742361 -1.170253,-3.032439 0.04267,-0.96087 0.240722,-1.540088 0.758594,-2.218538 l 0.293459,-0.384451 h -2.899826 -2.899825 l 0.35545,0.46875 c 0.598557,0.789348 0.868987,1.891812 0.712303,2.903845 -0.25425,1.642212 -1.478153,2.938272 -3.099031,3.281737 -0.713851,0.151265 -0.972197,0.152798 -1.636523,0.0097 z m 1.611488,-2.028688 c 0.498131,-0.225831 0.770856,-0.475169 0.992501,-0.90739 0.691533,-1.348533 -0.251885,-2.924393 -1.75074,-2.924393 -1.331348,0 -2.2415,1.077601 -2.000356,2.368379 0.23469,1.256237 1.608276,1.984909 2.758595,1.463404 z m 11.747281,-0.125345 c 0.889858,-0.521492 1.237999,-1.677003 0.779515,-2.587281 -0.361129,-0.716986 -1.016799,-1.127228 -1.807639,-1.13101 -0.929493,-0.0044 -1.755985,0.641111 -1.971625,1.539997 -0.411442,1.715084 1.465029,3.077701 2.999749,2.178294 z M 34.565259,24.701721 c 1.802197,-6.297496 1.815663,-6.350874 1.635489,-6.482621 -0.143035,-0.10459 -1.636772,-0.124522 -9.3318,-0.124522 -9.496487,0 -9.372429,-0.0047 -9.377918,0.352679 -0.005,0.322712 1.912868,6.932304 2.041618,7.036229 0.109459,0.08835 1.691768,0.107282 7.464388,0.08929 l 7.325484,-0.02284 z"
       id="path2535"
       inkscape:connector-curvature="0"
       transform="scale(0.26458333)" />
    <path
       style="opacity:1;fill:#ffffff;fill-opacity:1;stroke:#c13e83;stroke-width:0.08928572;stroke-linecap:round;stroke-linejoin:round;stroke-miterlimit:4;stroke-dasharray:none;stroke-dashoffset:0;stroke-opacity:0;paint-order:normal"
       d="m 21.108061,38.386188 c -1.055284,-0.378549 -1.944133,-1.164414 -2.425313,-2.14431 -0.216585,-0.441064 -0.25637,-0.641901 -0.282465,-1.425913 -0.03606,-1.083434 0.09259,-1.573048 0.636102,-2.420887 0.295014,-0.460196 0.338902,-0.580548 0.235561,-0.645954 -0.06985,-0.04421 -0.171001,-0.081 -0.224773,-0.08175 -0.348594,-0.0049 -0.359281,-0.04148 -2.92559,-10.019352 l -1.79807,-6.990944 -2.338286,-0.05947 c -2.4960653,-0.06349 -2.7336616,-0.1054 -2.9527773,-0.520884 -0.1575138,-0.298675 -0.07983,-0.874147 0.1488766,-1.102853 0.1556027,-0.155603 0.3449253,-0.193636 1.2344177,-0.247983 1.325061,-0.08096 3.416902,-0.08209 4.375352,-0.0024 0.55961,0.04655 0.777914,0.103652 0.913095,0.238832 0.117029,0.11703 0.314651,0.704684 0.579109,1.722056 0.2208,0.849421 0.421715,1.577183 0.446477,1.617249 0.02476,0.04007 0.24355,0.03677 0.486195,-0.0073 0.248545,-0.04518 4.586453,-0.06925 9.935071,-0.05515 l 9.493899,0.02504 0.410135,0.241112 c 0.690292,0.405811 1.152365,1.158617 1.152365,1.877429 0,0.403505 -0.162098,1.031863 -1.3955,5.409563 -0.732013,2.59812 -0.775721,2.718876 -1.0898,3.010902 -0.672641,0.625412 -0.120783,0.583553 -8.464367,0.642037 -5.638972,0.03953 -7.559197,0.07934 -7.589137,0.157365 -0.02205,0.05745 0.07296,0.58338 0.211116,1.168736 l 0.251197,1.064285 7.631996,0.05422 c 10.400362,0.07389 9.318534,0.04137 9.606182,0.288791 0.199978,0.172014 0.243074,0.282954 0.243074,0.625727 0,0.481099 -0.245372,0.816344 -0.66495,0.908498 -0.140592,0.03088 -0.272883,0.08408 -0.293981,0.118212 -0.0211,0.03414 0.119165,0.296407 0.311695,0.582821 0.499305,0.742782 0.639812,1.303075 0.603119,2.405017 -0.02659,0.798448 -0.06445,0.981676 -0.309942,1.499783 -0.922602,1.947161 -3.305231,2.757457 -5.284374,1.797134 -0.653119,-0.316907 -1.440621,-1.10696 -1.76609,-1.771811 -0.224395,-0.458382 -0.261823,-0.648629 -0.290219,-1.475173 -0.03869,-1.126354 0.09792,-1.702587 0.569945,-2.404015 0.173844,-0.258331 0.337019,-0.503575 0.362613,-0.544985 0.02559,-0.04141 -1.266543,-0.07529 -2.871413,-0.07529 h -2.917945 l 0.145038,0.200893 c 0.325059,0.45024 0.687922,1.114716 0.792319,1.450893 0.189972,0.611743 0.142499,1.881881 -0.09358,2.50362 -0.38995,1.026994 -1.230618,1.880039 -2.243355,2.276381 -0.701587,0.274572 -1.944685,0.328046 -2.553026,0.109823 z m 1.759484,-1.825183 c 1.208916,-0.3622 1.763813,-1.848693 1.107903,-2.96792 -0.357383,-0.609829 -0.831011,-0.887925 -1.584769,-0.930516 -1.090918,-0.06164 -1.880629,0.50171 -2.133988,1.522314 -0.3701,1.490865 1.099992,2.828787 2.610854,2.376122 z m 11.679182,-0.08107 c 0.539978,-0.244803 0.786856,-0.487291 1.037731,-1.019283 0.360762,-0.765013 0.243634,-1.517308 -0.333767,-2.143713 -0.467009,-0.506646 -0.831219,-0.668787 -1.502265,-0.668787 -2.19158,0 -2.842759,2.881936 -0.859811,3.805288 0.559562,0.260559 1.121998,0.269546 1.658112,0.0265 z m 0.654777,-13.898747 c 1.050707,-3.696006 1.174301,-4.211096 1.042149,-4.34327 -0.107398,-0.107417 -17.564968,-0.199494 -18.286948,-0.09645 -0.236706,0.03378 -0.406278,0.111222 -0.440854,0.201326 -0.06829,0.177966 0.238851,1.398867 0.993254,3.948216 0.923517,3.120836 0.950945,3.200856 1.111712,3.243396 0.08202,0.0217 3.428479,0.04412 7.43658,0.04982 l 7.287455,0.01036 z"
       id="path2545"
       inkscape:connector-curvature="0"
       transform="scale(0.26458333)" />
  </g>
</svg>
